<svg width="130" height="40" viewBox="0 0 130 40" fill="none" xmlns="http://www.w3.org/2000/svg">
<g clip-path="url(#clip0_1728_12721)">
<path d="M72.5298 24.9576C73.5888 24.9576 74.4473 24.1181 74.4473 23.0826C74.4473 22.047 73.5888 21.2075 72.5298 21.2075C71.4708 21.2075 70.6123 22.047 70.6123 23.0826C70.6123 24.1181 71.4708 24.9576 72.5298 24.9576Z" fill="#24292B"/>
<path d="M2.8145 0H0V24.8412H2.8145V0Z" fill="#50A744"/>
<path d="M25.0769 5.30188C19.8444 5.30188 16.0029 9.66945 16.0029 15.1297C16.0029 20.9876 20.2442 24.9576 25.4409 24.9576C29.0289 24.9576 31.3332 23.5384 33.2344 21.4273L31.4794 19.8626C29.9422 21.4661 28.1124 22.52 25.5157 22.52C22.1844 22.52 19.2594 20.2279 18.8564 16.1513H33.8584C33.8942 15.8248 33.8942 15.5306 33.8942 15.2784C33.8942 9.74381 30.6734 5.30511 25.0769 5.30511V5.30188ZM18.8564 14.0758C19.2237 10.4001 21.7099 7.66832 25.0054 7.66832C28.7754 7.66832 30.7514 10.6522 31.0407 14.0758H18.8532H18.8564Z" fill="#50A744"/>
<path d="M120.052 5.30188C114.345 5.30188 110.172 9.81493 110.172 15.1653C110.172 20.5157 114.306 24.9576 119.977 24.9576C125.648 24.9576 129.893 20.4445 129.893 15.0909C129.893 9.73734 125.72 5.30188 120.049 5.30188H120.052ZM120.052 22.4457C116.064 22.4457 113.064 19.1708 113.064 15.0909C113.064 11.0111 115.882 7.77501 119.98 7.77501C124.079 7.77501 127.007 11.0499 127.007 15.1621C127.007 19.2742 124.153 22.4424 120.055 22.4424L120.052 22.4457Z" fill="#24292B"/>
<path d="M99.3916 12.9992V24.8379H102.102V13.038C102.102 9.65325 104.185 7.90751 107.738 7.90751H108.648V5.43115H107.445C102.287 5.43115 99.3948 8.05299 99.3948 13.0025L99.3916 12.9992Z" fill="#24292B"/>
<path d="M61.6496 17.2699V8.25992H65.7641V5.46028H61.6496V0H58.9424V17.3054C58.9424 22.2549 61.8349 24.8735 66.9926 24.8735H68.1951V22.4004H67.2851C63.7361 22.4004 61.6496 20.6514 61.6496 17.2699Z" fill="#50A744"/>
<path d="M6.35685 15.1136L15.6291 5.42151H11.8234L2.54785 15.1136L11.8364 24.8412H15.6454L6.35685 15.1136Z" fill="#50A744"/>
<path d="M76.9893 30.5536V15.133C76.9893 13.2999 77.428 11.6124 78.2958 10.1253C79.1635 8.63494 80.353 7.44526 81.835 6.59179C83.3138 5.73508 84.994 5.30188 86.827 5.30188C88.66 5.30188 90.35 5.73508 91.858 6.59179C93.366 7.44849 94.5588 8.63494 95.4135 10.1221C96.2683 11.6124 96.7005 13.2999 96.7005 15.133C96.7005 16.966 96.2975 18.66 95.5013 20.1568C94.705 21.6439 93.6033 22.8239 92.222 23.6644C90.844 24.505 89.2808 24.9285 87.5778 24.9285C86.2063 24.9285 84.786 24.7798 83.6128 24.2076C82.4103 23.6192 81.5393 22.9985 80.6488 22.0803L79.82 21.104V30.5536H76.9958H76.9893ZM86.8238 7.77177C85.5043 7.77177 84.292 8.09829 83.2228 8.7384C82.1535 9.3785 81.302 10.2708 80.6943 11.3926C80.0898 12.5079 79.7843 13.7687 79.7843 15.1362C79.7843 16.5037 80.0898 17.7613 80.6943 18.8637C81.302 19.9725 82.1503 20.8583 83.2228 21.4984C84.2953 22.1385 85.5075 22.4651 86.8238 22.4651C88.14 22.4651 89.3555 22.1385 90.4248 21.4984C91.494 20.8583 92.3488 19.9758 92.9663 18.8669C93.5838 17.7613 93.8958 16.5069 93.8958 15.1362C93.8958 13.7655 93.5838 12.5079 92.9663 11.3893C92.3488 10.2708 91.4908 9.3785 90.4215 8.7384C89.349 8.09829 88.1368 7.77177 86.8205 7.77177H86.8238Z" fill="#24292B"/>
<path d="M36.6045 30.5536V15.133C36.6045 13.2999 37.0432 11.6124 37.911 10.1253C38.7787 8.63494 39.9682 7.44526 41.4502 6.59179C42.929 5.73508 44.6092 5.30188 46.4422 5.30188C48.2752 5.30188 49.9652 5.73508 51.4732 6.59179C52.9812 7.44849 54.174 8.63494 55.0287 10.1221C55.8835 11.6124 56.3157 13.2999 56.3157 15.133C56.3157 16.966 55.9127 18.66 55.1165 20.1568C54.3202 21.6439 53.2185 22.8239 51.8372 23.6644C50.4592 24.505 48.896 24.9285 47.193 24.9285C45.8215 24.9285 44.4012 24.7798 43.228 24.2076C42.0255 23.6192 41.1545 22.9985 40.264 22.0803L39.4352 21.104V30.5536H36.611H36.6045ZM46.439 7.77177C45.1195 7.77177 43.9072 8.09829 42.838 8.7384C41.7687 9.3785 40.9172 10.2708 40.3095 11.3926C39.705 12.5079 39.3995 13.7687 39.3995 15.1362C39.3995 16.5037 39.705 17.7613 40.3095 18.8637C40.9172 19.9725 41.7655 20.8583 42.838 21.4984C43.9105 22.1385 45.1227 22.4651 46.439 22.4651C47.7552 22.4651 48.9707 22.1385 50.04 21.4984C51.1092 20.8583 51.964 19.9758 52.5815 18.8669C53.199 17.7613 53.511 16.5069 53.511 15.1362C53.511 13.7655 53.199 12.5079 52.5815 11.3893C51.964 10.2708 51.106 9.3785 50.0367 8.7384C48.9642 8.09829 47.752 7.77177 46.4357 7.77177H46.439Z" fill="#50A744"/>
<path d="M74.8056 38.277C74.8056 39.1143 74.1686 39.916 73.0994 39.916H70.7139V34.0969H72.9141C73.8826 34.0969 74.4936 34.6724 74.4936 35.584C74.4936 36.0916 74.3084 36.6056 73.7559 36.8157C74.4449 36.9677 74.8089 37.6434 74.8089 38.277H74.8056ZM71.4841 34.8049V36.5183H72.9271C73.4536 36.5183 73.7169 36.1562 73.7169 35.6552C73.7169 35.1541 73.4374 34.8017 72.9011 34.8017H71.4841V34.8049ZM74.0321 38.2091C74.0321 37.6854 73.6909 37.194 72.9791 37.194H71.4841V39.2048H72.9369C73.6584 39.2048 74.0321 38.749 74.0321 38.2091Z" fill="#24292B"/>
<path d="M79.6382 39.2048V39.9128H76.1055V34.0936H79.5537V34.8016H76.8692V36.6928H79.2125V37.4105H76.8692V39.2015H79.6382V39.2048Z" fill="#24292B"/>
<path d="M84.6242 34.8049H82.84V39.916H82.0665V34.8049H80.2822V34.0969H84.621V34.8049H84.6242Z" fill="#24292B"/>
<path d="M89.3459 34.8049H87.5617V39.916H86.7882V34.8049H85.0039V34.0969H89.3427V34.8049H89.3459Z" fill="#24292B"/>
<path d="M93.9058 39.2048V39.9128H90.373V34.0936H93.8213V34.8016H91.1368V36.6928H93.48V37.4105H91.1368V39.2015H93.9058V39.2048Z" fill="#24292B"/>
<path d="M96.7335 37.7176H95.9698V39.9128H95.1963V34.0936H97.3965C98.6705 34.0936 99.1613 35.0053 99.1613 35.9105C99.1613 36.7543 98.7355 37.6013 97.6338 37.7112L99.1873 39.916H98.261L96.7335 37.7209V37.7176ZM95.9698 37.0161H97.1918C98.0498 37.0161 98.3878 36.57 98.3878 35.9105C98.3878 35.251 98.0043 34.8049 97.4128 34.8049H95.9698V37.0194V37.0161Z" fill="#24292B"/>
<path d="M106.772 38.277C106.772 39.1143 106.135 39.916 105.066 39.916H102.681V34.0969H104.881C105.849 34.0969 106.46 34.6724 106.46 35.584C106.46 36.0916 106.275 36.6056 105.723 36.8157C106.412 36.9677 106.776 37.6434 106.776 38.277H106.772ZM103.451 34.8049V36.5183H104.894C105.42 36.5183 105.684 36.1562 105.684 35.6552C105.684 35.1541 105.404 34.8017 104.868 34.8017H103.451V34.8049ZM105.999 38.2091C105.999 37.6854 105.658 37.194 104.946 37.194H103.451V39.2048H104.904C105.625 39.2048 105.999 38.749 105.999 38.2091Z" fill="#24292B"/>
<path d="M107.663 37.0161C107.663 35.3609 108.953 34.0258 110.617 34.0258C112.281 34.0258 113.588 35.3609 113.588 37.0161C113.588 38.6714 112.288 39.9968 110.617 39.9968C108.947 39.9968 107.663 38.6617 107.663 37.0161ZM112.818 37.0161C112.818 35.765 111.865 34.737 110.617 34.737C109.369 34.737 108.433 35.7683 108.433 37.0161C108.433 38.264 109.386 39.2888 110.617 39.2888C111.849 39.2888 112.818 38.2576 112.818 37.0161Z" fill="#24292B"/>
<path d="M114.459 37.0161C114.459 35.3609 115.749 34.0258 117.413 34.0258C119.077 34.0258 120.384 35.3609 120.384 37.0161C120.384 38.6714 119.084 39.9968 117.413 39.9968C115.743 39.9968 114.459 38.6617 114.459 37.0161ZM119.613 37.0161C119.613 35.765 118.661 34.737 117.413 34.737C116.165 34.737 115.229 35.7683 115.229 37.0161C115.229 38.264 116.181 39.2888 117.413 39.2888C118.645 39.2888 119.613 38.2576 119.613 37.0161Z" fill="#24292B"/>
<path d="M124.768 39.916L122.425 37.4235V39.916H121.661V34.0969H122.425V36.6379L124.388 34.0969H125.33L123.072 37.0097L125.798 39.916H124.771H124.768Z" fill="#24292B"/>
<path d="M125.984 38.2511H126.747C126.773 38.7651 127.264 39.2888 128.047 39.2888C128.831 39.2888 129.227 38.8168 129.227 38.2996C129.227 37.7338 128.71 37.4817 128.216 37.3524L127.459 37.1681C126.221 36.8739 126.023 36.1465 126.023 35.6745C126.023 34.6691 126.933 34.0258 127.95 34.0258C128.967 34.0258 129.802 34.6756 129.802 35.7165H129.039C129.039 35.1346 128.554 34.737 127.927 34.737C127.342 34.737 126.796 35.0926 126.796 35.6648C126.796 35.8685 126.864 36.2887 127.644 36.4763L128.408 36.6605C129.403 36.9062 129.997 37.4461 129.997 38.2737C129.997 39.1789 129.26 39.9968 128.044 39.9968C126.829 39.9968 125.99 39.153 125.98 38.2479L125.984 38.2511Z" fill="#24292B"/>
</g>
<defs>
<clipPath id="clip0_1728_12721">
<rect width="130" height="40" fill="white"/>
</clipPath>
</defs>
</svg>
